<?xml version="1.0" encoding="UTF-8" standalone="no" ?>
<!DOCTYPE svg PUBLIC "-//W3C//DTD SVG 1.1//EN" "http://www.w3.org/Graphics/SVG/1.1/DTD/svg11.dtd">
<svg xmlns="http://www.w3.org/2000/svg" xmlns:xlink="http://www.w3.org/1999/xlink" version="1.1" width="1080" height="1080" viewBox="0 0 1080 1080" xml:space="preserve">
<desc>Created with Fabric.js 5.2.4</desc>
<defs>
</defs>
<g transform="matrix(1 0 0 1 540 540)" id="229ea862-8bce-4201-b7a7-639ef16d2a58"  >
<rect style="stroke: none; stroke-width: 1; stroke-dasharray: none; stroke-linecap: butt; stroke-dashoffset: 0; stroke-linejoin: miter; stroke-miterlimit: 4; fill: rgb(255,255,255); fill-rule: nonzero; opacity: 1; visibility: hidden;" vector-effect="non-scaling-stroke"  x="-540" y="-540" rx="0" ry="0" width="1080" height="1080" />
</g>
<g transform="matrix(1 0 0 1 540 540)" id="5c01e970-2ed6-4ec1-bf4a-9d9e7fceb1ec"  >
</g>
<g transform="matrix(2.85 0 0 2.85 540 540)"  >
<g style="" vector-effect="non-scaling-stroke"   >
		<g transform="matrix(0.13 0 0 -0.13 -52.37 -2.54)"  >
<path style="stroke: none; stroke-width: 1; stroke-dasharray: none; stroke-linecap: butt; stroke-dashoffset: 0; stroke-linejoin: miter; stroke-miterlimit: 4; fill: rgb(255,250,210); fill-rule: nonzero; opacity: 1;" vector-effect="non-scaling-stroke"  transform=" translate(-1094.55, -882.51)" d="M 1374 1632 C 1366 1624 1356 1620 1353 1623 C 1350 1626 1341 1623 1333 1615 C 1325 1607 1311 1595 1301 1588 C 1275 1569 1230 1471 1230 1433 C 1230 1397 1259 1360 1287 1360 C 1306 1360 1360 1408 1360 1425 C 1360 1450 1391 1497 1415 1508 C 1445 1522 1498 1513 1524 1491 C 1551 1468 1570 1417 1564 1385 C 1557 1347 1513 1291 1484 1284 C 1471 1281 1460 1274 1460 1269 C 1460 1264 1451 1260 1440 1260 C 1429 1260 1420 1256 1420 1252 C 1420 1247 1409 1238 1396 1232 C 1382 1226 1354 1210 1333 1197 C 1312 1184 1292 1172 1288 1171 C 1284 1170 1234 1142 1178 1110 C 1121 1077 1072 1050 1068 1050 C 1065 1050 1027 1030 985 1005 C 942 979 895 958 880 957 C 861 956 854 951 858 941 C 861 933 859 929 854 933 C 848 936 822 928 795 915 C 768 902 741 894 735 897 C 730 901 728 899 733 895 C 740 886 656 840 633 840 C 626 840 605 831 585 820 C 566 809 550 803 550 807 C 550 811 545 809 538 802 C 531 795 518 790 509 790 C 500 790 487 783 480 775 C 473 767 464 763 459 766 C 454 769 450 766 450 759 C 450 752 442 750 429 753 C 417 756 411 756 414 752 C 422 745 324 697 300 696 C 292 696 283 693 280 689 C 277 685 268 680 261 678 C 246 675 220 656 194 632 C 186 625 180 621 180 625 C 180 634 147 600 117 560 C 103 541 89 512 86 496 C 83 480 78 465 76 462 C 73 459 76 450 83 442 C 93 429 92 428 81 435 C 74 439 78 429 91 411 C 108 387 121 380 146 380 C 164 380 183 386 187 392 C 200 412 240 431 252 424 C 259 420 260 421 256 428 C 252 435 255 440 264 440 C 273 440 280 445 280 451 C 280 456 284 459 289 456 C 294 452 300 455 302 460 C 304 466 325 461 352 447 C 378 434 398 426 396 429 C 392 434 777 435 790 430 C 793 429 800 429 805 430 C 811 431 838 432 865 431 C 893 431 975 430 1047 429 C 1120 428 1177 423 1174 419 C 1171 414 1173 410 1178 410 C 1186 410 1194 392 1200 360 C 1201 357 1211 339 1223 320 C 1235 301 1244 284 1242 282 C 1241 281 1247 263 1256 242 C 1265 222 1273 200 1274 193 C 1277 175 1313 131 1321 136 C 1325 138 1331 136 1335 130 C 1338 125 1381 120 1430 120 C 1516 120 1519 121 1539 149 C 1551 165 1560 183 1560 190 C 1560 196 1565 198 1572 194 C 1579 189 1580 191 1576 199 C 1571 206 1576 220 1586 231 C 1595 241 1599 250 1595 250 C 1591 250 1594 258 1602 268 C 1611 277 1616 293 1615 303 C 1613 312 1616 320 1621 320 C 1627 320 1630 326 1629 333 C 1626 350 1641 381 1649 376 C 1653 373 1656 379 1657 388 C 1658 412 1683 474 1695 482 C 1701 486 1702 490 1698 490 C 1694 490 1699 505 1709 522 C 1723 549 1750 615 1755 640 C 1758 653 1785 707 1796 720 C 1802 728 1810 750 1813 767 C 1817 785 1827 812 1837 827 C 1847 842 1855 858 1855 864 C 1856 870 1869 902 1885 935 C 1901 968 1915 997 1916 1000 C 1917 1003 1921 1015 1925 1028 C 1929 1040 1936 1050 1940 1050 C 1945 1050 1946 1059 1943 1070 C 1940 1081 1943 1090 1949 1090 C 1955 1090 1959 1093 1958 1098 C 1956 1107 1970 1141 1983 1158 C 1989 1165 1995 1182 1996 1196 C 1998 1210 2008 1240 2018 1263 C 2036 1300 2081 1405 2105 1465 C 2118 1496 2117 1530 2104 1530 C 2097 1530 2090 1535 2088 1541 C 2083 1557 1995 1556 1965 1540 C 1951 1533 1940 1521 1940 1514 C 1940 1507 1933 1495 1925 1486 C 1916 1478 1909 1467 1910 1463 C 1910 1448 1887 1385 1873 1363 C 1865 1351 1858 1337 1858 1333 C 1855 1308 1847 1291 1839 1296 C 1834 1299 1830 1298 1831 1293 C 1834 1276 1817 1220 1808 1220 C 1803 1220 1801 1216 1805 1211 C 1808 1206 1799 1177 1786 1148 C 1773 1119 1756 1078 1750 1058 C 1744 1037 1734 1018 1729 1015 C 1724 1011 1720 1000 1720 989 C 1720 976 1716 971 1708 976 C 1701 981 1699 976 1702 962 C 1705 951 1703 939 1696 937 C 1690 934 1678 909 1671 880 C 1662 844 1655 832 1649 841 C 1643 851 1640 846 1640 825 C 1640 808 1635 789 1628 782 C 1621 775 1619 770 1623 770 C 1632 770 1580 667 1566 658 C 1559 653 1560 650 1568 650 C 1577 650 1574 636 1557 603 C 1528 547 1505 494 1495 463 C 1489 443 1457 428 1462 448 C 1463 455 1427 542 1410 572 C 1405 582 1400 599 1400 610 C 1400 621 1396 630 1391 630 C 1386 630 1379 640 1375 653 C 1371 665 1367 678 1365 683 C 1359 701 1358 705 1359 713 C 1359 717 1355 720 1350 720 C 1344 720 1340 725 1340 731 C 1340 741 1307 821 1290 852 C 1284 862 1280 876 1280 884 C 1280 892 1270 906 1258 914 C 1246 923 1239 930 1243 930 C 1248 930 1245 936 1237 944 C 1221 961 1199 960 1177 942 C 1167 933 1160 932 1155 940 C 1152 945 1154 950 1161 950 C 1168 950 1184 960 1197 972 C 1214 987 1220 989 1220 979 C 1221 969 1223 970 1231 983 C 1236 992 1248 1000 1255 1000 C 1263 1000 1270 1004 1270 1009 C 1270 1014 1280 1022 1292 1026 C 1304 1029 1320 1039 1328 1046 C 1335 1054 1345 1058 1350 1055 C 1354 1052 1363 1057 1370 1065 C 1377 1073 1386 1078 1390 1075 C 1394 1072 1400 1077 1404 1085 C 1407 1093 1419 1100 1430 1100 C 1441 1100 1450 1105 1450 1111 C 1450 1116 1455 1118 1460 1115 C 1466 1112 1470 1113 1470 1119 C 1470 1125 1481 1132 1494 1136 C 1508 1139 1526 1150 1536 1161 C 1545 1171 1557 1180 1562 1180 C 1577 1180 1630 1233 1661 1279 C 1689 1322 1691 1331 1689 1405 C 1687 1462 1682 1493 1667 1517 C 1640 1564 1581 1620 1560 1620 C 1550 1620 1540 1625 1538 1631 C 1532 1649 1392 1650 1374 1632 z M 1513 1609 C 1560 1596 1622 1542 1645 1494 C 1672 1436 1667 1347 1633 1291 C 1597 1232 1559 1208 1210 1015 C 767 770 525 633 400 557 C 173 419 137 400 123 412 C 102 429 108 490 135 536 C 169 593 219 624 437 720 C 903 925 1057 1000 1330 1158 C 1382 1189 1449 1227 1479 1244 C 1509 1261 1547 1292 1564 1313 C 1590 1346 1595 1360 1595 1404 C 1594 1490 1536 1550 1455 1550 C 1389 1550 1342 1508 1331 1441 C 1324 1404 1302 1383 1276 1393 C 1236 1409 1275 1530 1335 1576 C 1391 1618 1445 1628 1513 1609 z M 2046 1399 C 2018 1332 1887 1025 1755 716 L 1515 155 L 1421 155 L 1326 155 L 1254 325 C 1214 419 1176 506 1170 520 C 1089 689 1076 754 1109 826 C 1127 865 1193 930 1215 930 C 1224 930 1439 439 1463 362 C 1473 330 1474 330 1521 442 C 1546 504 1641 728 1730 940 C 1819 1152 1911 1369 1933 1423 L 1974 1520 L 2035 1520 L 2097 1520 L 2046 1399 z M 1140 922 C 1140 918 1129 906 1115 896 C 1101 886 1090 871 1090 863 C 1090 850 1086 839 1062 793 C 1047 765 1047 757 1061 765 C 1068 770 1069 761 1065 738 C 1061 715 1065 685 1080 644 C 1116 544 1125 553 981 553 C 910 553 847 549 840 545 C 833 540 829 541 833 546 C 836 551 771 554 678 553 C 590 552 508 555 497 560 C 476 567 476 568 503 580 C 518 587 530 597 530 602 C 530 606 537 610 545 610 C 554 610 563 617 566 625 C 570 633 580 640 590 640 C 599 640 624 651 644 665 C 664 678 680 687 680 685 C 680 682 697 690 718 703 C 770 735 810 751 821 745 C 826 742 827 747 823 756 C 819 767 821 771 827 767 C 833 763 846 770 856 781 C 866 792 880 798 887 796 C 894 793 900 796 900 803 C 900 810 922 825 948 837 C 1005 864 1061 895 1078 910 C 1084 916 1090 918 1090 915 C 1090 912 1098 914 1108 919 C 1129 932 1140 933 1140 922 z M 1170 501 C 1175 490 1180 477 1180 471 C 1180 463 1052 460 765 460 C 537 460 350 464 350 468 C 350 479 380 506 400 513 C 408 516 582 519 787 519 C 1145 520 1160 519 1170 501 z" stroke-linecap="round" />
</g>
		<g transform="matrix(0.13 0 0 -0.13 -72.01 -56.59)"  >
<path style="stroke: none; stroke-width: 1; stroke-dasharray: none; stroke-linecap: butt; stroke-dashoffset: 0; stroke-linejoin: miter; stroke-miterlimit: 4; fill: rgb(255,250,210); fill-rule: nonzero; opacity: 1;" vector-effect="non-scaling-stroke"  transform=" translate(-927.01, -1300.58)" d="M 730 1525 C 712 1498 712 1493 726 1471 C 735 1458 737 1451 731 1454 C 724 1459 722 1455 726 1446 C 729 1437 736 1430 740 1430 C 744 1430 751 1418 755 1403 C 758 1388 772 1353 785 1325 C 797 1297 824 1234 844 1185 C 865 1135 890 1088 900 1079 C 911 1070 916 1060 913 1056 C 909 1053 913 1050 921 1049 C 929 1048 944 1047 955 1046 C 966 1046 987 1053 1002 1063 C 1016 1072 1033 1080 1038 1080 C 1044 1080 1050 1083 1052 1088 C 1054 1092 1072 1103 1093 1113 C 1114 1122 1128 1135 1125 1140 C 1122 1146 1124 1150 1130 1150 C 1157 1150 1113 1287 1045 1412 C 1037 1426 1030 1445 1030 1453 C 1030 1478 989 1540 973 1540 C 965 1540 961 1544 964 1548 C 966 1552 919 1556 859 1555 L 749 1555 L 730 1525 z M 988 1473 C 1070 1291 1110 1194 1110 1179 C 1110 1156 1078 1132 1002 1096 C 963 1077 936 1070 930 1076 C 922 1084 740 1506 740 1516 C 740 1518 791 1520 853 1520 L 967 1520 L 988 1473 z" stroke-linecap="round" />
</g>
		<g transform="matrix(0.13 0 0 -0.13 109.93 28.75)"  >
<path style="stroke: none; stroke-width: 1; stroke-dasharray: none; stroke-linecap: butt; stroke-dashoffset: 0; stroke-linejoin: miter; stroke-miterlimit: 4; fill: rgb(255,250,210); fill-rule: nonzero; opacity: 1;" vector-effect="non-scaling-stroke"  transform=" translate(-2300.07, -659.75)" d="M 1986 925 C 1971 911 1960 895 1960 889 C 1960 883 1956 881 1951 884 C 1939 892 1950 842 1964 831 C 1986 813 2128 741 2132 746 C 2135 748 2145 741 2155 730 C 2165 719 2181 710 2191 710 C 2201 710 2212 705 2215 700 C 2219 694 2240 680 2263 669 C 2286 657 2307 645 2310 641 C 2313 638 2337 624 2363 610 C 2418 581 2452 550 2429 550 C 2421 550 2409 555 2402 562 C 2395 569 2390 570 2390 564 C 2390 559 2347 554 2293 553 C 2233 553 2203 555 2215 560 C 2230 566 2231 569 2219 569 C 2210 570 2200 567 2196 563 C 2192 558 2109 554 2012 553 C 1790 550 1789 550 1768 520 C 1744 486 1746 456 1773 442 C 1801 428 1870 421 1870 433 C 1870 437 1874 438 1880 435 C 1888 430 2453 425 2470 430 C 2473 431 2493 433 2515 434 C 2537 435 2563 440 2574 445 C 2586 450 2595 448 2602 439 C 2610 428 2611 429 2606 443 C 2600 462 2624 468 2635 450 C 2639 444 2645 442 2650 445 C 2654 448 2661 443 2664 434 C 2668 425 2673 420 2676 423 C 2679 426 2690 420 2701 409 C 2712 398 2725 392 2730 395 C 2734 398 2740 396 2742 390 C 2746 377 2790 368 2790 381 C 2790 386 2795 390 2800 390 C 2832 390 2856 455 2836 489 C 2832 495 2835 500 2842 500 C 2850 500 2851 503 2845 508 C 2840 512 2826 531 2816 549 C 2792 592 2757 624 2708 646 C 2687 655 2670 667 2670 672 C 2670 677 2666 678 2660 675 C 2655 672 2650 673 2650 678 C 2650 683 2642 690 2633 693 C 2623 696 2590 708 2560 720 C 2530 731 2490 745 2473 751 C 2455 756 2440 765 2440 770 C 2440 776 2431 780 2420 780 C 2410 780 2396 788 2391 798 C 2385 807 2380 810 2380 804 C 2380 797 2360 802 2333 816 C 2306 829 2278 840 2269 840 C 2260 840 2241 849 2228 860 C 2214 870 2200 876 2196 873 C 2193 870 2190 872 2190 879 C 2190 886 2186 889 2182 886 C 2177 883 2149 894 2119 909 C 2036 952 2016 955 1986 925 z M 2305 795 C 2671 638 2736 605 2773 558 C 2810 512 2822 432 2796 411 C 2782 399 2752 414 2572 522 C 2339 663 2256 710 2088 799 L 1971 861 L 1988 890 C 1997 907 2007 920 2010 920 C 2013 920 2146 864 2305 795 z M 2544 498 C 2563 485 2579 472 2580 468 C 2580 463 2398 460 2175 460 C 1952 460 1770 462 1770 465 C 1770 467 1775 481 1782 495 L 1793 520 L 2151 520 C 2505 520 2509 520 2544 498 z" stroke-linecap="round" />
</g>
</g>
</g>
</svg>